HIERARCHY
ROOT Hips
{
	OFFSET 0.000000 35.082581 0.000000
	CHANNELS 6 Xposition Yposition Zposition Xrotation Yrotation Zrotation 
	JOINT Spine
	{
		OFFSET 0.000000 6.876099 0.125700
		CHANNELS 3 Xrotation Yrotation Zrotation
		JOINT Spine1
		{
			OFFSET 0.000000 5.730043 0.104720
			CHANNELS 3 Xrotation Yrotation Zrotation
			JOINT Spine1_split
			{
				OFFSET 0.000000 5.730043 0.104720
				CHANNELS 3 Xrotation Yrotation Zrotation
				JOINT Spine2
				{
					OFFSET 0.000000 5.730043 0.104720
					CHANNELS 3 Xrotation Yrotation Zrotation
					JOINT Neck
					{
						OFFSET 0.000000 10.314075 0.188496
						CHANNELS 3 Xrotation Yrotation Zrotation
						JOINT Head
						{
							OFFSET 0.000000 7.643700 -2.377400
							CHANNELS 3 Xrotation Yrotation Zrotation
							JOINT HeadTop_End
							{
								OFFSET 0.000000 43.788605 -13.619600
								CHANNELS 3 Xrotation Yrotation Zrotation
								End Site
								{
									OFFSET 0.000000 0.000000 0.000000
								}
							}
						}
					}
					JOINT LeftShoulder
					{
						OFFSET 2.196100 4.412489 0.087492
						CHANNELS 3 Xrotation Yrotation Zrotation
						JOINT LeftShoulder_split
						{
							OFFSET 2.196100 4.412489 0.087492
							CHANNELS 3 Xrotation Yrotation Zrotation
							JOINT LeftArm
							{
								OFFSET 8.771219 -2.981674 -0.026999
								CHANNELS 3 Xrotation Yrotation Zrotation
								JOINT LeftForeArm
								{
									OFFSET 8.512804 0.000000 -0.000000
									CHANNELS 3 Xrotation Yrotation Zrotation
									JOINT LeftHand
									{
										OFFSET 18.484802 0.000000 -0.000000
										CHANNELS 3 Xrotation Yrotation Zrotation
										JOINT LeftHandThumb1
										{
											OFFSET 2.499420 -1.158070 2.653252
											CHANNELS 3 Xrotation Yrotation Zrotation
											JOINT LeftHandThumb2
											{
												OFFSET 2.370079 -1.368366 1.368366
												CHANNELS 3 Xrotation Yrotation Zrotation
												JOINT LeftHandThumb3
												{
													OFFSET 2.676727 -1.545410 1.545409
													CHANNELS 3 Xrotation Yrotation Zrotation
													JOINT LeftHandThumb4
													{
														OFFSET 1.692226 -0.977005 0.977007
														CHANNELS 3 Xrotation Yrotation Zrotation
														End Site
														{
															OFFSET 0.000000 0.000000 0.000000
														}
													}
												}
											}
										}
										JOINT LeftHandIndex1
										{
											OFFSET 7.924831 -0.457527 2.345128
											CHANNELS 3 Xrotation Yrotation Zrotation
											JOINT LeftHandIndex2
											{
												OFFSET 3.643303 0.000000 0.000000
												CHANNELS 3 Xrotation Yrotation Zrotation
												JOINT LeftHandIndex3
												{
													OFFSET 3.810799 0.000000 0.000000
													CHANNELS 3 Xrotation Yrotation Zrotation
													JOINT LeftHandIndex4
													{
														OFFSET 2.403702 0.000000 0.000000
														CHANNELS 3 Xrotation Yrotation Zrotation
														End Site
														{
															OFFSET 0.000000 0.000000 0.000000
														}
													}
												}
											}
										}
										JOINT LeftHandMiddle1
										{
											OFFSET 8.563995 0.000000 -0.000000
											CHANNELS 3 Xrotation Yrotation Zrotation
											JOINT LeftHandMiddle2
											{
												OFFSET 3.861618 0.000000 0.000000
												CHANNELS 3 Xrotation Yrotation Zrotation
												JOINT LeftHandMiddle3
												{
													OFFSET 3.701603 0.000000 0.000000
													CHANNELS 3 Xrotation Yrotation Zrotation
													JOINT LeftHandMiddle4
													{
														OFFSET 2.322544 0.000000 0.000000
														CHANNELS 3 Xrotation Yrotation Zrotation
														End Site
														{
															OFFSET 0.000000 0.000000 0.000000
														}
													}
												}
											}
										}
										JOINT LeftHandRing1
										{
											OFFSET 8.426460 -0.424637 -3.286992
											CHANNELS 3 Xrotation Yrotation Zrotation
											JOINT LeftHandRing2
											{
												OFFSET 3.126408 0.000000 0.000000
												CHANNELS 3 Xrotation Yrotation Zrotation
												JOINT LeftHandRing3
												{
													OFFSET 3.085026 0.000000 0.000000
													CHANNELS 3 Xrotation Yrotation Zrotation
													JOINT LeftHandRing4
													{
														OFFSET 1.644005 0.000000 0.000000
														CHANNELS 3 Xrotation Yrotation Zrotation
														End Site
														{
															OFFSET 0.000000 0.000000 0.000000
														}
													}
												}
											}
										}
									}
								}
							}
						}
					}
					JOINT RightShoulder
					{
						OFFSET -2.196100 4.412496 0.070690
						CHANNELS 3 Xrotation Yrotation Zrotation
						JOINT RightShoulder_split
						{
							OFFSET -2.196100 4.412496 0.070690
							CHANNELS 3 Xrotation Yrotation Zrotation
							JOINT RightArm
							{
								OFFSET -8.771282 -2.981682 -0.094208
								CHANNELS 3 Xrotation Yrotation Zrotation
								JOINT RightForeArm
								{
									OFFSET -8.494598 0.000000 0.000000
									CHANNELS 3 Xrotation Yrotation Zrotation
									JOINT RightHand
									{
										OFFSET -18.483803 0.000000 0.000001
										CHANNELS 3 Xrotation Yrotation Zrotation
										JOINT RightHandThumb1
										{
											OFFSET -2.527351 -1.008072 2.575253
											CHANNELS 3 Xrotation Yrotation Zrotation
											JOINT RightHandThumb2
											{
												OFFSET -2.321518 -1.340328 1.340329
												CHANNELS 3 Xrotation Yrotation Zrotation
												JOINT RightHandThumb3
												{
													OFFSET -2.657753 -1.534454 1.534455
													CHANNELS 3 Xrotation Yrotation Zrotation
													JOINT RightHandThumb4
													{
														OFFSET -1.807510 -1.043568 1.043567
														CHANNELS 3 Xrotation Yrotation Zrotation
														End Site
														{
															OFFSET 0.000000 0.000000 0.000000
														}
													}
												}
											}
										}
										JOINT RightHandIndex1
										{
											OFFSET -8.811420 0.015533 2.887987
											CHANNELS 3 Xrotation Yrotation Zrotation
											JOINT RightHandIndex2
											{
												OFFSET -3.537502 0.000000 0.000000
												CHANNELS 3 Xrotation Yrotation Zrotation
												JOINT RightHandIndex3
												{
													OFFSET -3.356201 0.000000 0.000000
													CHANNELS 3 Xrotation Yrotation Zrotation
													JOINT RightHandIndex4
													{
														OFFSET -1.933098 0.000000 0.000000
														CHANNELS 3 Xrotation Yrotation Zrotation
														End Site
														{
															OFFSET 0.000000 0.000000 0.000000
														}
													}
												}
											}
										}
										JOINT RightHandMiddle1
										{
											OFFSET -8.178135 0.000000 0.000000
											CHANNELS 3 Xrotation Yrotation Zrotation
											JOINT RightHandMiddle2
											{
												OFFSET -3.901302 0.000000 0.000000
												CHANNELS 3 Xrotation Yrotation Zrotation
												JOINT RightHandMiddle3
												{
													OFFSET -3.909599 0.000000 0.000000
													CHANNELS 3 Xrotation Yrotation Zrotation
													JOINT RightHandMiddle4
													{
														OFFSET -2.376003 0.000000 0.000000
														CHANNELS 3 Xrotation Yrotation Zrotation
														End Site
														{
															OFFSET 0.000000 0.000000 0.000000
														}
													}
												}
											}
										}
										JOINT RightHandRing1
										{
											OFFSET -7.559013 0.014137 -2.865403
											CHANNELS 3 Xrotation Yrotation Zrotation
											JOINT RightHandRing2
											{
												OFFSET -3.449306 0.000000 0.000000
												CHANNELS 3 Xrotation Yrotation Zrotation
												JOINT RightHandRing3
												{
													OFFSET -3.362106 0.000000 0.000000
													CHANNELS 3 Xrotation Yrotation Zrotation
													JOINT RightHandRing4
													{
														OFFSET -2.076401 0.000000 0.000000
														CHANNELS 3 Xrotation Yrotation Zrotation
														End Site
														{
															OFFSET 0.000000 0.000000 0.000000
														}
													}
												}
											}
										}
									}
								}
							}
						}
					}
				}
			}
		}
	}
	JOINT LeftUpLeg
	{
		OFFSET 10.205400 -3.823500 0.155100
		CHANNELS 3 Xrotation Yrotation Zrotation
		JOINT LeftLeg
		{
			OFFSET 0.708757 -12.982077 0.567790
			CHANNELS 3 Xrotation Yrotation Zrotation
			JOINT LeftFoot
			{
				OFFSET -0.708756 -10.717838 -2.184338
				CHANNELS 3 Xrotation Yrotation Zrotation
				JOINT LeftToeBase
				{
					OFFSET 0.108149 -7.191104 7.560241
					CHANNELS 3 Xrotation Yrotation Zrotation
					JOINT LeftToe_End
					{
						OFFSET 0.070230 0.081724 4.490308
						CHANNELS 3 Xrotation Yrotation Zrotation
						End Site
						{
							OFFSET 0.000000 0.000000 0.000000
						}
					}
				}
			}
		}
	}
	JOINT RightUpLeg
	{
		OFFSET -10.205400 -3.823500 0.005500
		CHANNELS 3 Xrotation Yrotation Zrotation
		JOINT RightLeg
		{
			OFFSET -0.708756 -12.982134 0.610632
			CHANNELS 3 Xrotation Yrotation Zrotation
			JOINT RightFoot
			{
				OFFSET 0.708754 -10.717769 -1.945823
				CHANNELS 3 Xrotation Yrotation Zrotation
				JOINT RightToeBase
				{
					OFFSET -0.108140 -7.191069 7.372968
					CHANNELS 3 Xrotation Yrotation Zrotation
					JOINT RightToe_End
					{
						OFFSET -0.070227 0.081735 4.479403
						CHANNELS 3 Xrotation Yrotation Zrotation
						End Site
						{
							OFFSET 0.000000 0.000000 0.000000
						}
					}
				}
			}
		}
	}
}
MOTION
Frames: 5
Frame Time: 0.016667
-2.289367 31.080467 -0.834974 2.461516 27.832176 1.073177 3.939496 4.783335 -2.066941 0.662379 3.033932 0.848258 0.000000 0.000000 0.000000 0.672737 3.142738 0.838938 -2.710830 10.151292 -6.043547 -8.274085 5.419469 8.279210 0.000000 0.000003 0.000000 -0.170432 1.694767 -1.674861 0.000000 0.000000 0.000000 -70.359172 1.043890 -26.985326 2.443027 -70.793299 3.754328 -29.776145 28.488673 8.482181 17.563632 -5.693998 -12.929215 10.852311 26.148382 8.654090 20.924891 51.116402 0.219853 -0.000008 0.000003 -0.000003 13.978249 1.203573 -55.006054 0.372694 1.163876 -65.441852 1.986574 2.154432 -57.665122 0.000001 0.000002 0.000000 7.502543 1.175428 -63.755294 1.809516 1.478253 -64.569876 0.131000 -0.903801 -43.270799 0.000000 -0.000000 0.000000 8.574333 2.179123 -75.149013 -0.208034 1.014699 -57.856804 0.433174 1.760592 -53.580901 0.000000 0.000004 0.000001 4.020292 15.450590 6.652457 0.000000 0.000000 0.000000 13.125189 -8.190038 63.320805 15.659585 40.753509 -6.335593 0.612795 5.014359 4.113603 15.788491 -2.734478 -17.205882 -2.198340 -31.113554 7.361212 -6.563772 -4.145954 2.404836 -0.000000 -0.000002 -0.000002 2.074290 -2.892239 8.063595 -2.121951 -2.465272 18.435495 -1.984030 -4.777944 13.954152 0.000001 0.000001 0.000001 -2.068501 -5.551583 13.796151 0.296911 -5.078015 27.073159 -0.651331 -1.203593 16.209521 -0.000001 0.000001 -0.000000 -2.790446 -9.236764 13.386729 4.022955 -4.011806 34.251777 2.110243 -3.137640 16.576949 -0.000000 0.000000 0.000000 -44.346892 -22.869236 -0.891936 34.448687 15.381639 -9.407416 8.311942 -3.838487 -5.601621 -2.984922 -1.725334 -0.462242 -0.000000 -0.000001 -0.000000 21.164601 -26.682668 2.093055 20.017396 -7.352836 5.454541 -38.071894 -14.116092 4.454143 -1.306369 -0.028467 0.200614 0.000000 -0.000002 -0.000000 
-2.283130 31.143650 -0.841620 2.690633 26.468033 0.882994 4.004111 4.674464 -2.067646 0.707249 2.981735 0.854120 0.000000 0.000000 0.000000 0.717240 3.091661 0.846010 -3.079329 8.772019 -5.694020 -7.482104 4.208294 8.375154 0.000000 -0.000003 -0.000000 -0.162802 1.312161 -1.801375 0.000000 0.000000 0.000000 -70.388924 1.155120 -27.050795 2.650993 -71.946460 3.781615 -30.374954 28.694632 9.100165 17.563630 -5.694006 -12.929219 10.852314 26.148382 8.654086 20.924887 51.116408 0.219851 -0.000002 -0.000002 -0.000004 13.978252 1.203572 -55.006058 0.372696 1.163876 -65.441859 1.986573 2.154433 -57.665122 0.000001 0.000000 0.000000 7.502544 1.175427 -63.755294 1.809517 1.478256 -64.569876 0.130999 -0.903802 -43.270799 -0.000000 -0.000001 -0.000000 8.574332 2.179123 -75.149013 -0.208034 1.014701 -57.856804 0.433173 1.760596 -53.580894 -0.000001 -0.000003 0.000000 4.048807 15.426143 6.521214 0.000000 0.000000 0.000000 12.805609 -8.144391 63.265754 15.745727 41.230836 -6.421041 0.382683 5.166913 4.027963 15.788493 -2.734477 -17.205882 -2.198336 -31.113554 7.361208 -6.563767 -4.145955 2.404838 0.000000 -0.000000 0.000001 2.074629 -2.893184 8.030025 -2.121187 -2.465796 18.407493 -1.983113 -4.778674 13.925547 0.000001 0.000001 0.000001 -2.069247 -5.550825 13.763156 0.297729 -5.078518 27.045830 -0.651207 -1.204336 16.182069 -0.000001 -0.000000 0.000001 -2.792282 -9.234416 13.352271 4.022588 -4.012744 34.223219 2.110708 -3.136732 16.548701 0.000000 0.000001 -0.000002 -43.858489 -22.367517 0.038654 35.161711 15.432930 -9.581695 7.328669 -3.539022 -5.757305 -3.033262 -1.803878 -0.483751 0.000000 -0.000002 -0.000000 19.720059 -25.792478 1.349403 20.846595 -7.039412 5.543990 -38.050789 -13.870054 4.219423 -1.303056 -0.028225 0.191553 0.000000 0.000004 0.000000 
-2.274885 31.206364 -0.850041 2.948076 25.068363 0.691023 4.064523 4.580289 -2.048562 0.745717 2.934846 0.846918 0.000000 0.000000 0.000000 0.756889 3.044790 0.839890 -3.457282 7.577843 -5.438822 -6.770385 3.128976 8.503118 -0.000000 -0.000000 -0.000000 -0.084034 0.806784 -1.884475 0.000000 0.000000 0.000000 -70.540281 1.291836 -27.179157 2.895063 -73.071058 3.786754 -31.235616 28.851402 9.761308 17.563630 -5.693999 -12.929219 10.852320 26.148387 8.654090 20.924891 51.116402 0.219845 -0.000006 -0.000003 -0.000000 13.978252 1.203569 -55.006054 0.372693 1.163875 -65.441852 1.986575 2.154431 -57.665122 0.000000 0.000000 0.000000 7.502544 1.175422 -63.755294 1.809517 1.478255 -64.569883 0.131001 -0.903797 -43.270799 0.000000 0.000001 -0.000000 8.574332 2.179122 -75.149013 -0.208029 1.014699 -57.856804 0.433173 1.760588 -53.580894 0.000002 -0.000000 -0.000001 4.018027 15.343497 6.386894 0.000000 0.000000 0.000000 12.582814 -8.065727 63.241869 15.851409 41.731971 -6.506812 0.197828 5.306155 3.964797 15.788495 -2.734477 -17.205882 -2.198340 -31.113550 7.361213 -6.563765 -4.145953 2.404834 -0.000001 0.000001 0.000003 2.074930 -2.893525 7.958535 -2.120552 -2.465792 18.342313 -1.983456 -4.778954 13.859377 -0.000000 0.000000 0.000001 -2.070270 -5.549534 13.692536 0.297858 -5.078843 26.981093 -0.651072 -1.204516 16.117276 0.000001 0.000001 0.000003 -2.794170 -9.231175 13.280190 4.022290 -4.012922 34.157277 2.111029 -3.135777 16.483191 0.000001 0.000002 -0.000005 -43.382978 -21.883308 0.971336 35.874059 15.517080 -9.769366 6.330596 -3.206976 -5.938355 -3.078478 -1.876292 -0.501839 0.000000 -0.000001 -0.000000 18.228699 -24.833313 0.587947 21.681551 -6.728723 5.694018 -38.002025 -13.605671 3.985431 -1.298558 -0.028002 0.181762 0.000000 -0.000000 -0.000000 
-2.264727 31.267635 -0.860157 3.235298 23.629458 0.497439 4.112477 4.450134 -2.062974 0.790329 2.868910 0.853544 0.000000 0.000000 0.000000 0.800376 2.980543 0.848367 -3.958433 6.548233 -5.148045 -6.079051 2.232477 8.598650 0.000000 0.000001 -0.000000 -0.018813 0.448313 -1.892854 0.000000 0.000000 0.000000 -70.716548 1.401112 -27.633596 3.155366 -74.131082 3.832559 -32.165068 28.983365 10.355870 17.563627 -5.694006 -12.929221 10.852313 26.148377 8.654092 20.924886 51.116405 0.219848 -0.000004 -0.000000 -0.000004 13.978251 1.203573 -55.006054 0.372691 1.163873 -65.441852 1.986573 2.154433 -57.665122 -0.000002 0.000000 -0.000000 7.502543 1.175428 -63.755294 1.809516 1.478254 -64.569876 0.130997 -0.903801 -43.270795 0.000000 0.000000 0.000001 8.574331 2.179123 -75.149013 -0.208033 1.014699 -57.856804 0.433174 1.760592 -53.580894 0.000001 0.000000 0.000001 4.046399 15.322764 6.229095 0.000000 0.000000 0.000000 12.299346 -7.930859 63.218100 15.936179 42.171644 -6.586659 0.097013 5.468614 3.943398 15.788496 -2.734477 -17.205882 -2.198334 -31.113550 7.361210 -6.563766 -4.145956 2.404833 -0.000001 -0.000000 0.000001 2.075170 -2.893276 7.852202 -2.120030 -2.465280 18.240814 -1.984617 -4.778891 13.758796 -0.000001 -0.000001 0.000001 -2.071533 -5.547790 13.586795 0.297046 -5.079020 26.880715 -0.650933 -1.204174 16.017893 0.000000 -0.000000 -0.000005 -2.798420 -9.227084 13.172290 4.022025 -4.012406 34.056030 2.111223 -3.134931 16.382146 -0.000000 -0.000001 0.000002 -42.931837 -21.442160 1.902054 36.569803 15.627562 -9.976257 5.353197 -2.851812 -6.124303 -3.124011 -1.938764 -0.511901 -0.000000 0.000000 0.000000 16.705437 -23.873429 -0.149091 22.537809 -6.441130 5.836886 -37.933122 -13.354969 3.753586 -1.294200 -0.027897 0.178345 0.000000 0.000002 0.000000 
-2.253589 31.332413 -0.870273 3.550723 22.146648 0.301799 4.159919 4.314833 -2.056460 0.813765 2.798221 0.871273 0.000000 0.000000 0.000000 0.822900 2.911490 0.866819 -4.434310 5.616284 -5.025563 -5.511904 1.377581 8.838562 0.000000 -0.000001 0.000001 0.049261 0.112955 -1.840621 0.000000 0.000000 0.000000 -70.965406 1.555729 -28.323618 3.446461 -75.023426 3.823188 -33.074330 29.037077 10.816287 17.563628 -5.694000 -12.929222 10.852312 26.148379 8.654091 20.924884 51.116402 0.219854 -0.000001 -0.000000 -0.000004 13.978249 1.203574 -55.006058 0.372691 1.163877 -65.441859 1.986576 2.154436 -57.665115 -0.000000 -0.000003 0.000000 7.502544 1.175429 -63.755294 1.809519 1.478256 -64.569883 0.131000 -0.903801 -43.270799 0.000000 0.000002 0.000000 8.574332 2.179125 -75.149020 -0.208032 1.014698 -57.856804 0.433174 1.760593 -53.580894 0.000000 0.000001 0.000000 4.069659 15.320695 6.024836 0.000000 0.000000 0.000000 12.145404 -7.778620 63.262523 16.010675 42.685356 -6.730057 0.109522 5.573311 3.945696 15.788495 -2.734474 -17.205883 -2.198335 -31.113554 7.361212 -6.563765 -4.145956 2.404831 0.000003 0.000001 0.000002 2.075375 -2.892489 7.711511 -2.119653 -2.464912 18.106565 -1.986203 -4.778554 13.624015 -0.000001 -0.000001 0.000001 -2.073072 -5.545621 13.447029 0.295625 -5.079058 26.747086 -0.650830 -1.203330 15.884481 -0.000002 -0.000002 0.000000 -2.803182 -9.222169 13.030529 4.021860 -4.013298 33.921370 2.111405 -3.135972 16.247680 -0.000001 -0.000002 0.000005 -42.496911 -21.435256 2.690626 37.300582 15.991865 -10.154133 4.352760 -2.261474 -6.520026 -3.129730 -1.945490 -0.512967 -0.000000 0.000001 -0.000000 15.103722 -22.821105 -0.850335 23.384437 -6.121443 5.937499 -37.812030 -13.093242 3.545501 -1.290788 -0.027603 0.165133 0.000000 0.000001 0.000000 
